<?xml version="1.0" encoding="UTF-8" standalone="no"?>
<!DOCTYPE svg PUBLIC "-//W3C//DTD SVG 1.1//EN"
 "http://www.w3.org/Graphics/SVG/1.1/DTD/svg11.dtd">
<!-- Generated by graphviz version 9.0.0 (20230911.1827)
 -->
<!-- Title: G Pages: 1 -->
<svg width="376pt" height="188pt"
 viewBox="0.00 0.00 376.27 188.00" xmlns="http://www.w3.org/2000/svg" xmlns:xlink="http://www.w3.org/1999/xlink">
<g id="graph0" class="graph" transform="scale(1 1) rotate(0) translate(4 184)">
<title>G</title>
<polygon fill="white" stroke="none" points="-4,4 -4,-184 372.27,-184 372.27,4 -4,4"/>
<!-- A -->
<g id="node1" class="node">
<title>A</title>
<ellipse fill="none" stroke="black" cx="198.95" cy="-162" rx="78.04" ry="18"/>
<text text-anchor="middle" x="198.95" y="-157.32" font-family="Times,serif" font-size="14.00">Gender = &#39;M&#39;</text>
</g>
<!-- B -->
<g id="node2" class="node">
<title>B</title>
<ellipse fill="none" stroke="black" cx="122.95" cy="-90" rx="57.52" ry="18"/>
<text text-anchor="middle" x="122.95" y="-85.33" font-family="Times,serif" font-size="14.00">Age &lt; 30</text>
</g>
<!-- A&#45;&gt;B -->
<g id="edge1" class="edge">
<title>A&#45;&gt;B</title>
<path fill="none" stroke="black" d="M180.55,-144.05C171.15,-135.39 159.54,-124.7 149.21,-115.19"/>
<polygon fill="black" stroke="black" points="151.75,-112.77 142.03,-108.57 147.01,-117.92 151.75,-112.77"/>
</g>
<!-- C -->
<g id="node3" class="node">
<title>C</title>
<ellipse fill="none" stroke="black" cx="275.95" cy="-90" rx="76.99" ry="18"/>
<text text-anchor="middle" x="275.95" y="-85.33" font-family="Times,serif" font-size="14.00">Salary &lt; 500</text>
</g>
<!-- A&#45;&gt;C -->
<g id="edge2" class="edge">
<title>A&#45;&gt;C</title>
<path fill="none" stroke="black" d="M217.59,-144.05C227.04,-135.46 238.7,-124.86 249.11,-115.4"/>
<polygon fill="black" stroke="black" points="251.31,-118.12 256.36,-108.81 246.61,-112.94 251.31,-118.12"/>
</g>
<!-- D -->
<g id="node4" class="node">
<title>D</title>
<ellipse fill="none" stroke="black" cx="45.95" cy="-18" rx="45.95" ry="18"/>
<text text-anchor="middle" x="45.95" y="-13.32" font-family="Times,serif" font-size="14.00">A, C, D</text>
</g>
<!-- B&#45;&gt;D -->
<g id="edge3" class="edge">
<title>B&#45;&gt;D</title>
<path fill="none" stroke="black" d="M105.09,-72.76C95.2,-63.78 82.74,-52.45 71.81,-42.51"/>
<polygon fill="black" stroke="black" points="74.32,-40.06 64.56,-35.92 69.61,-45.24 74.32,-40.06"/>
</g>
<!-- E -->
<g id="node5" class="node">
<title>E</title>
<ellipse fill="none" stroke="black" cx="141.95" cy="-18" rx="31.74" ry="18"/>
<text text-anchor="middle" x="141.95" y="-13.32" font-family="Times,serif" font-size="14.00">B, F</text>
</g>
<!-- B&#45;&gt;E -->
<g id="edge4" class="edge">
<title>B&#45;&gt;E</title>
<path fill="none" stroke="black" d="M127.64,-71.7C129.67,-64.24 132.09,-55.32 134.36,-46.97"/>
<polygon fill="black" stroke="black" points="137.67,-48.13 136.91,-37.57 130.91,-46.3 137.67,-48.13"/>
</g>
<!-- F -->
<g id="node6" class="node">
<title>F</title>
<ellipse fill="none" stroke="black" cx="256.95" cy="-18" rx="27" ry="18"/>
<text text-anchor="middle" x="256.95" y="-13.32" font-family="Times,serif" font-size="14.00">E</text>
</g>
<!-- C&#45;&gt;F -->
<g id="edge5" class="edge">
<title>C&#45;&gt;F</title>
<path fill="none" stroke="black" d="M271.25,-71.7C269.23,-64.24 266.81,-55.32 264.54,-46.97"/>
<polygon fill="black" stroke="black" points="267.98,-46.3 261.99,-37.57 261.23,-48.13 267.98,-46.3"/>
</g>
<!-- G -->
<g id="node7" class="node">
<title>G</title>
<ellipse fill="none" stroke="black" cx="334.95" cy="-18" rx="33.32" ry="18"/>
<text text-anchor="middle" x="334.95" y="-13.32" font-family="Times,serif" font-size="14.00">G, H</text>
</g>
<!-- C&#45;&gt;G -->
<g id="edge6" class="edge">
<title>C&#45;&gt;G</title>
<path fill="none" stroke="black" d="M290.23,-72.05C297.47,-63.47 306.38,-52.89 314.35,-43.44"/>
<polygon fill="black" stroke="black" points="316.86,-45.89 320.63,-35.99 311.51,-41.38 316.86,-45.89"/>
</g>
</g>
</svg>
